<svg xmlns="http://www.w3.org/2000/svg" width="6.49" height="4.68" viewBox="0 0 7.487 5.681">
  <path id="done_FILL0_wght500_GRAD0_opsz40" d="M9.04,15.139a.384.384,0,0,1-.139-.026.372.372,0,0,1-.128-.087L6.946,13.2a.409.409,0,0,1,0-.564.37.37,0,0,1,.272-.113.405.405,0,0,1,.282.113l1.54,1.55,3.613-3.613a.4.4,0,0,1,.554,0,.409.409,0,0,1,0,.564l-3.89,3.89a.372.372,0,0,1-.128.087A.412.412,0,0,1,9.04,15.139Z" transform="translate(-6.333 -9.958)" fill="#50cd89" stroke="#50cd89" stroke-width="1"/>
</svg>
