<svg xmlns="http://www.w3.org/2000/svg" width="11.777" height="11.777" viewBox="0 0 11.777 11.777">
  <path id="schedule_FILL0_wght600_GRAD0_opsz24" d="M8.679,9.634a.605.605,0,0,0,.464.2.674.674,0,0,0,.492-.211.679.679,0,0,0,0-.956L8.088,7.119V5.306A.641.641,0,0,0,7.9,4.834a.658.658,0,0,0-.485-.189.643.643,0,0,0-.485.2.662.662,0,0,0-.19.478V7.372a.787.787,0,0,0,.056.3.7.7,0,0,0,.155.239ZM7.414,13.3a5.724,5.724,0,0,1-2.3-.464,5.909,5.909,0,0,1-3.12-3.12,5.724,5.724,0,0,1-.464-2.3,5.724,5.724,0,0,1,.464-2.3,5.909,5.909,0,0,1,3.12-3.12,5.724,5.724,0,0,1,2.3-.464,5.724,5.724,0,0,1,2.3.464,5.9,5.9,0,0,1,3.12,3.12,5.724,5.724,0,0,1,.464,2.3,5.724,5.724,0,0,1-.464,2.3,5.9,5.9,0,0,1-3.12,3.12A5.724,5.724,0,0,1,7.414,13.3Zm0-5.889Zm0,4.4a4.253,4.253,0,0,0,3.113-1.279,4.234,4.234,0,0,0,1.286-3.12,4.234,4.234,0,0,0-1.286-3.12A4.253,4.253,0,0,0,7.414,3.015,4.251,4.251,0,0,0,4.3,4.294a4.233,4.233,0,0,0-1.286,3.12A4.233,4.233,0,0,0,4.3,10.534,4.251,4.251,0,0,0,7.414,11.813Z" transform="translate(-1.525 -1.525)" fill="#797c8b"/>
</svg>
