<svg xmlns="http://www.w3.org/2000/svg" width="11.198" height="11.198" viewBox="0 0 11.198 11.198">
  <path id="Edit_icon" data-name="Edit icon" d="M10.913,3.181,9.9,4.19a.263.263,0,0,1-.372,0L7.105,1.762a.263.263,0,0,1,0-.372L8.114.382A1.052,1.052,0,0,1,9.6.382L10.913,1.7A1.048,1.048,0,0,1,10.913,3.181ZM6.239,2.256.5,8,.032,10.657a.526.526,0,0,0,.608.608L3.3,10.8,9.041,5.056a.263.263,0,0,0,0-.372L6.613,2.256a.265.265,0,0,0-.374,0Zm-3.5,5.251a.3.3,0,0,1,0-.433L6.106,3.706a.306.306,0,0,1,.433.433L3.171,7.508a.3.3,0,0,1-.433,0Zm-.79,1.839H3v.794l-1.411.247-.68-.68L1.154,8.3h.794Z" transform="translate(-0.024 -0.075)" fill="#00a3ff"/>
</svg>
