<svg xmlns="http://www.w3.org/2000/svg" width="10.771" height="12.31" viewBox="0 0 10.771 12.31">
  <path id="arrow-right-from-bracket-solid" d="M3.847,1.539H2.308a.769.769,0,0,0-.769.769V8.463a.769.769,0,0,0,.769.769H3.847a.769.769,0,0,1,0,1.539H2.308A2.308,2.308,0,0,1,0,8.463V2.308A2.308,2.308,0,0,1,2.308,0H3.847a.769.769,0,1,1,0,1.539Zm8.237,4.39L9.007,9.007A.769.769,0,0,1,7.919,7.919L9.685,6.155H4.616a.769.769,0,0,1,0-1.539H9.685L7.92,2.852A.769.769,0,0,1,9.008,1.764l3.078,3.078A.77.77,0,0,1,12.084,5.929Z" transform="translate(0 12.31) rotate(-90)" fill="#00a3ff"/>
</svg>
