<svg xmlns="http://www.w3.org/2000/svg" width="18.641" height="16.589" viewBox="0 0 18.641 16.589">
  <path id="house_FILL0_wght400_GRAD0_opsz48" d="M13.263,23.089H8.311a.72.72,0,0,1-.743-.743v-7.18H5.563a.35.35,0,0,1-.347-.235.329.329,0,0,1,.1-.409L14.006,6.7a.718.718,0,0,1,.99,0l4.457,3.937V8.481a.72.72,0,0,1,.743-.743h.5a.72.72,0,0,1,.743.743v3.986l2.253,2.055a.363.363,0,0,1-.248.644H21.434v7.18a.72.72,0,0,1-.743.743H15.739V17.146H13.263ZM9.054,21.6h2.724V16.4a.72.72,0,0,1,.743-.743h3.961a.72.72,0,0,1,.743.743v5.2h2.724V13.16L14.5,8.208,9.054,13.16ZM12.4,12.937h4.209a1.689,1.689,0,0,0-.631-1.349,2.3,2.3,0,0,0-2.946,0A1.689,1.689,0,0,0,12.4,12.937Zm.124,2.724h0Z" transform="translate(-5.183 -6.5)" fill="#00a3ff"/>
</svg>
