<svg xmlns="http://www.w3.org/2000/svg" width="14.046" height="12.29" viewBox="0 0 14.046 12.29">
  <path id="Logout" d="M4.389,42.535H2.634a.878.878,0,0,1-.878-.878V34.634a.878.878,0,0,1,.878-.878H4.389a.878.878,0,0,0,0-1.756H2.634A2.634,2.634,0,0,0,0,34.634v7.023A2.634,2.634,0,0,0,2.634,44.29H4.389a.878.878,0,1,0,0-1.756Zm9.4-5.009-3.512-3.512a.878.878,0,0,0-1.241,1.241l2.015,2.012H5.267a.878.878,0,0,0,0,1.756H11.05L9.037,41.036a.878.878,0,1,0,1.241,1.241l3.512-3.512A.879.879,0,0,0,13.788,37.525Z" transform="translate(0 -32)" fill="#fff"/>
</svg>
