<svg xmlns="http://www.w3.org/2000/svg" width="16.202" height="16.202" viewBox="0 0 16.202 16.202">
  <path id="print-solid" d="M14.176,6.076H2.025A2.026,2.026,0,0,0,0,8.1v3.038a1.013,1.013,0,0,0,1.013,1.013H2.025v3.038A1.013,1.013,0,0,0,3.038,16.2H13.164a1.013,1.013,0,0,0,1.013-1.013V12.151h1.013A1.013,1.013,0,0,0,16.2,11.139V8.1A2.027,2.027,0,0,0,14.176,6.076Zm-2.025,8.1H4.05V11.139h8.1Zm1.519-4.81a.759.759,0,1,1,.759-.759A.76.76,0,0,1,13.67,9.367ZM4.05,2.025h7.262l.839.839v2.2h2.025V2.444a1.012,1.012,0,0,0-.3-.716L12.448.3a1.012,1.012,0,0,0-.714-.3h-8.7A1.013,1.013,0,0,0,2.025,1.013v4.05H4.05Z" fill="#fff"/>
</svg>
