<svg xmlns="http://www.w3.org/2000/svg" width="14.602" height="14.636" viewBox="0 0 14.602 14.636">
  <g id="Setting_icon" data-name="Setting icon" transform="translate(-215.957 -39.599)">
    <path id="Path_387" data-name="Path 387" d="M8.332,3.961a1.254,1.254,0,0,1,2.439,0,1.254,1.254,0,0,0,1.873.778,1.257,1.257,0,0,1,1.725,1.73,1.259,1.259,0,0,0,.775,1.877,1.259,1.259,0,0,1,0,2.445,1.259,1.259,0,0,0-.776,1.878,1.257,1.257,0,0,1-1.725,1.73,1.254,1.254,0,0,0-1.872.777,1.254,1.254,0,0,1-2.439,0A1.254,1.254,0,0,0,6.459,14.4a1.257,1.257,0,0,1-1.725-1.73,1.259,1.259,0,0,0-.775-1.877,1.259,1.259,0,0,1,0-2.445,1.259,1.259,0,0,0,.776-1.878A1.257,1.257,0,0,1,6.46,4.738a1.254,1.254,0,0,0,1.872-.777Z" transform="translate(213.707 37.349)" fill="none" stroke="#181c32" stroke-linecap="round" stroke-linejoin="round" stroke-width="1.5"/>
    <circle id="Ellipse_2" data-name="Ellipse 2" cx="1.689" cy="1.689" r="1.689" transform="translate(221.57 45.415)" fill="none" stroke="#181c32" stroke-linecap="round" stroke-linejoin="round" stroke-width="1.5"/>
  </g>
</svg>
