<svg height="512" viewBox="0 0 512 512" width="512" xmlns="http://www.w3.org/2000/svg" xmlns:xlink="http://www.w3.org/1999/xlink"><linearGradient id="linear-gradient" gradientUnits="userSpaceOnUse" x1="256" x2="256" y2="510.31"><stop offset="0" stop-color="#ff3437"/><stop offset=".08" stop-color="#ff4638"/><stop offset=".28" stop-color="#ff7139"/><stop offset=".49" stop-color="#ff923a"/><stop offset=".68" stop-color="#ffaa3b"/><stop offset=".85" stop-color="#ffb93c"/><stop offset="1" stop-color="#ffbe3c"/></linearGradient><linearGradient id="linear-gradient-2" gradientUnits="userSpaceOnUse" x1="228.04" x2="228.04" y1="21.77" y2="499.08"><stop offset="0" stop-color="#ea0f1a"/><stop offset=".15" stop-color="#ec3522"/><stop offset=".34" stop-color="#ef602b"/><stop offset=".52" stop-color="#f18132"/><stop offset=".7" stop-color="#f39937"/><stop offset=".86" stop-color="#f4a83a"/><stop offset="1" stop-color="#f4ad3b"/></linearGradient><linearGradient id="linear-gradient-3" gradientUnits="userSpaceOnUse" x1="327.14" x2="327.14" y1="21.77" y2="499.08"><stop offset="0" stop-color="#ff3437"/><stop offset="0" stop-color="#ff3537"/><stop offset=".23" stop-color="#fb6038"/><stop offset=".44" stop-color="#f8813a"/><stop offset=".65" stop-color="#f6993a"/><stop offset=".84" stop-color="#f4a83b"/><stop offset="1" stop-color="#f4ad3b"/></linearGradient><g id="Layer_2" data-name="Layer 2"><g id="angry_"><circle id="background" cx="256" cy="256" fill="url(#linear-gradient)" r="256"/><path d="m433.08 104.57a232.05 232.05 0 0 0 -154.47-58.57c-128.69 0-233 104.32-233 233a232.08 232.08 0 0 0 56 151.47 232.46 232.46 0 0 1 -78.61-174.47c0-128.68 104.32-233 233-233a232.45 232.45 0 0 1 177.08 81.57z" fill="url(#linear-gradient-2)"/><path d="m512 256c0 141.38-114.62 256-256 256a254.88 254.88 0 0 1 -113.72-26.59 269.19 269.19 0 0 0 44 3.59c153.46 0 277.86-128.6 277.86-287.23a293.85 293.85 0 0 0 -29.74-129.37 255.25 255.25 0 0 1 77.6 183.6z" fill="url(#linear-gradient-3)"/><g fill="#6a371a"><path d="m362.25 394c3.19 7.12.41 15.82-6.77 18.86-4.49 1.9-10.3 2.09-16.47.18-13.37-4.14-26.58-9-40.2-12-40.25-8.83-79.75-5.2-118.34 9.09-4.49 1.67-9.05 3.61-13.73 4.23-14.08 1.85-22-9-16.55-22 16.51-39.15 60.25-67.65 104.55-67.53 49.06.01 87.93 25.47 107.51 69.17z"/><circle cx="345.81" cy="261.79" r="37"/><rect height="51.69" rx="25.85" transform="matrix(.968 -.253 .253 .968 -35.73 96.14)" width="158.55" x="277.34" y="161.38"/><circle cx="166.19" cy="261.79" r="37"/><rect height="51.69" rx="25.85" transform="matrix(-.968 -.253 .253 -.968 258.44 407.63)" width="158.55" x="76.1" y="161.38"/></g></g></g></svg>