<svg fill="none" height="512" viewBox="0 0 24 24" width="512" xmlns="http://www.w3.org/2000/svg"><g fill="rgb(0,0,0)"><path d="m9.98999 22.78c-.6 0-1.17-.3-1.56-.83l-1.19998-1.6c0 .01-.05001-.02-.07001-.02h-.36999c-3.42 0-5.54001-.93-5.54001-5.54v-4c0-4.20999 2.57001-5.30999 4.73001-5.49999.24-.03.52-.04001.81-.04001h6.39999c3.62 0 5.54 1.92001 5.54 5.54v4c0 .29-.01.57-.05.84-.18 2.13-1.28 4.7-5.49 4.7h-.4l-1.24 1.62c-.39.53-.96.83-1.56001.83zm-3.19998-16.03c-.23 0-.45001.01-.66001.03-2.32.2-3.38 1.47001-3.38 4.01v4c0 3.43 1.06001 4.04 4.04001 4.04h.39999c.45 0 .95999.25 1.23999.61l1.20001 1.61c.22001.3.5.3.72 0l1.2-1.6c.29-.39.75-.62 1.24-.62h.4c2.54 0 3.81-1.07 4-3.35.03-.24.04-.46.04-.69v-4c0-2.78999-1.25-4.04-4.04-4.04z"/><path d="m9.99023 14.19c-.56 0-1-.45-1-1s.45-1 1-1c.54997 0 .99997.45.99997 1s-.44 1-.99997 1z"/><path d="m13.1899 14.19c-.56 0-1-.45-1-1s.45-1 1-1 1 .45 1 1-.45 1-1 1z"/><path d="m6.7998 14.19c-.56 0-1-.45-1-1s.45-1 1-1 1 .45 1 1-.45 1-1 1z"/><path d="m17.9401 16.29c-.2 0-.4-.08-.54-.23-.16-.16-.23-.39-.2-.61.03-.21.04-.43.04-.66v-4c0-2.78999-1.25-4.04-4.04-4.04h-6.39998c-.23 0-.44997.01-.65997.03-.22.03-.45002-.05001-.61002-.20001-.16-.16-.25001-.37998-.23001-.59998.18-2.16 1.29-4.73001 5.49998-4.73001h6.4c3.62 0 5.54 1.92001 5.54 5.54001v3.99999c0 4.21-2.57 5.31-4.73 5.5-.03 0-.05 0-.07 0zm-11.01995-11.04h6.26985c3.62 0 5.54 1.92001 5.54 5.54l.0001 3.87c1.7-.42 2.5-1.67 2.5-3.87v-3.99999c0-2.79-1.25-4.04001-4.04-4.04001h-6.4c-2.19996 0-3.43995.8-3.86995 2.5z"/></g></svg>