<svg id="Group_11399" data-name="Group 11399" xmlns="http://www.w3.org/2000/svg" xmlns:xlink="http://www.w3.org/1999/xlink" width="9.347" height="11.912" viewBox="0 0 9.347 11.912">
  <defs>
    <clipPath id="clip-path">
      <rect id="Rectangle_1517" data-name="Rectangle 1517" width="9.347" height="11.912" fill="#ff4141"/>
    </clipPath>
  </defs>
  <g id="Group_11398" data-name="Group 11398" clip-path="url(#clip-path)">
    <path id="Path_24492" data-name="Path 24492" d="M9.348,4.615A5.045,5.045,0,0,1,8.2,7.881Q6.652,9.772,5.1,11.662a.479.479,0,0,1-.841,0C3.177,10.351,2.077,9.055,1.026,7.722a4.858,4.858,0,0,1,.41-6.434A4.594,4.594,0,0,1,5.074.013a4.587,4.587,0,0,1,4.2,3.9c.045.267.056.54.072.7M2.842,4.573A1.833,1.833,0,1,0,4.69,2.746,1.835,1.835,0,0,0,2.842,4.573" transform="translate(0 0)" fill="#ff4141"/>
  </g>
</svg>
