<svg id="profile" xmlns="http://www.w3.org/2000/svg" xmlns:xlink="http://www.w3.org/1999/xlink" width="16.613" height="19.912" viewBox="0 0 16.613 19.912">
  <defs>
    <linearGradient id="linear-gradient" y1="0.5" x2="1" y2="0.5" gradientUnits="objectBoundingBox">
      <stop offset="0" stop-color="#1fa7fa"/>
      <stop offset="1" stop-color="#1b76ef"/>
    </linearGradient>
    <linearGradient id="linear-gradient-2" x1="0" y1="0.5" x2="1" y2="0.5" xlink:href="#linear-gradient"/>
  </defs>
  <path id="Path_24486" data-name="Path 24486" d="M133.8,9.592a4.641,4.641,0,0,0,3.391-1.405,4.639,4.639,0,0,0,1.4-3.391A4.64,4.64,0,0,0,137.188,1.4a4.8,4.8,0,0,0-6.782,0A4.642,4.642,0,0,0,129,4.8a4.642,4.642,0,0,0,1.405,3.391A4.644,4.644,0,0,0,133.8,9.592Z" transform="translate(-125.616 0)" fill="url(#linear-gradient)"/>
  <path id="Path_24487" data-name="Path 24487" d="M58.573,231.384c-.027-.42-.081-.879-.161-1.364a11.459,11.459,0,0,0-.311-1.371,7.092,7.092,0,0,0-.52-1.278,4.8,4.8,0,0,0-.784-1.107,3.434,3.434,0,0,0-1.128-.767,3.628,3.628,0,0,0-1.439-.282,1.4,1.4,0,0,0-.78.358c-.233.165-.506.356-.812.567a4.424,4.424,0,0,1-1.05.5,3.78,3.78,0,0,1-2.57,0,4.477,4.477,0,0,1-1.05-.5c-.3-.209-.576-.4-.813-.567a1.4,1.4,0,0,0-.778-.358,3.62,3.62,0,0,0-1.439.282,3.43,3.43,0,0,0-1.128.767,4.8,4.8,0,0,0-.779,1.107,7.1,7.1,0,0,0-.52,1.279,11.589,11.589,0,0,0-.309,1.37c-.08.484-.135.942-.162,1.364s-.039.841-.039,1.274a3.743,3.743,0,0,0,.982,2.71,3.382,3.382,0,0,0,2.531,1H55.1a3.382,3.382,0,0,0,2.53-1,3.744,3.744,0,0,0,.982-2.711C58.613,232.224,58.6,231.795,58.573,231.384Z" transform="translate(-42 -216.456)" fill="url(#linear-gradient-2)"/>
</svg>
