<svg xmlns="http://www.w3.org/2000/svg" width="19.921" height="19.654" viewBox="0 0 19.921 19.654">
  <g id="marketplace" transform="translate(0)" opacity="0.9">
    <g id="Layer_2_1_" transform="translate(0 0)">
      <g id="Group_11386" data-name="Group 11386">
        <path id="Path_24479" data-name="Path 24479" d="M91.81,283.8a6.224,6.224,0,0,1-6.3,0,6.176,6.176,0,0,1-5.511.408V290.3a2.252,2.252,0,0,0,2.362,2.106h2.362V289.6a2.252,2.252,0,0,1,2.362-2.106h3.149A2.252,2.252,0,0,1,92.6,289.6v2.808h2.362a2.252,2.252,0,0,0,2.362-2.106v-6.094a6.013,6.013,0,0,1-2.362.478A5.93,5.93,0,0,1,91.81,283.8Z" transform="translate(-78.7 -272.753)" fill="#4c46c8"/>
        <path id="Path_24480" data-name="Path 24480" d="M70.062,37.993l-1.681-4.554A2.311,2.311,0,0,0,66.177,32H54.465a2.32,2.32,0,0,0-2.2,1.439L50.58,37.993a3.246,3.246,0,0,0,1.453,3.983,4.279,4.279,0,0,0,4.669-.342.831.831,0,0,1,1.027,0,4.3,4.3,0,0,0,5.173,0,.831.831,0,0,1,1.027,0,4.181,4.181,0,0,0,4.669.342A3.24,3.24,0,0,0,70.062,37.993Z" transform="translate(-50.36 -32)" fill="#4c46c8"/>
      </g>
    </g>
  </g>
</svg>
