<svg xmlns="http://www.w3.org/2000/svg" width="17.486" height="19.608" viewBox="0 0 17.486 19.608">
  <g id="page" transform="translate(0)">
    <path id="Path_24481" data-name="Path 24481" d="M68.6,19.608h-.316a.316.316,0,0,1-.316-.316V.316A.316.316,0,0,1,68.284,0H68.6a.316.316,0,0,1,.316.316v1.9l-.386.3.386.644v9.171l-.37.366.37.583v6.009A.316.316,0,0,1,68.6,19.608Z" transform="translate(-67.019 0)" fill="#615260"/>
    <path id="Path_24482" data-name="Path 24482" d="M60.975,3.163V2.214h-.633V0h-.316a.316.316,0,0,0-.316.316V19.292a.316.316,0,0,0,.316.316h.316V13.915a.633.633,0,0,1,.633-.633v-.949h-.633V3.8A.632.632,0,0,1,60.975,3.163Z" transform="translate(-59.078 0)" fill="#4e3d4d"/>
    <path id="Path_24483" data-name="Path 24483" d="M51.451,33.348v.4a.33.33,0,0,0,.341.316h2.7a.33.33,0,0,1,.341.316v8.759a.33.33,0,0,1-.341.316h-2.7a.33.33,0,0,0-.341.316V44.1a.33.33,0,0,0,.341.316H67.16a.32.32,0,0,0,.318-.431l-2.209-5.262,2.209-5.262a.32.32,0,0,0-.318-.431H51.793A.33.33,0,0,0,51.451,33.348Z" transform="translate(-51.135 -31.767)" fill="#ff8b57"/>
    <path id="Path_24484" data-name="Path 24484" d="M378.3,43.986l-2.046-5.262,2.046-5.262a.316.316,0,0,0-.295-.431h-1.119L374.764,38.5a.632.632,0,0,0,0,.458l2.125,5.463h1.119A.316.316,0,0,0,378.3,43.986Z" transform="translate(-360.839 -31.767)" fill="#ffaa5a"/>
    <path id="Path_24485" data-name="Path 24485" d="M44.458,43.786h1.581a.949.949,0,0,0,.949-.949V34.614a.949.949,0,0,0-.949-.949H44.458a.633.633,0,0,1-.633-.633h-.316a.316.316,0,0,0-.316.316v.633a.316.316,0,0,0,.316.316h2.53a.316.316,0,0,1,.316.316v8.223a.316.316,0,0,1-.316.316h-2.53a.316.316,0,0,0-.316.316V44.1a.316.316,0,0,0,.316.316h.316A.633.633,0,0,1,44.458,43.786Z" transform="translate(-43.193 -31.768)" fill="#ff744d"/>
  </g>
</svg>
