<svg id="Layer_1" enable-background="new 0 0 512 512" height="512" viewBox="0 0 512 512" width="512" xmlns="http://www.w3.org/2000/svg"><path d="m494.533 172.016-115.899-115.899c-9.563-9.563-19.263-14.412-28.829-14.412-13.134 0-28.472 9.99-28.472 38.145v39.458c-84.204 3.67-162.839 38.203-222.815 98.176-63.524 63.519-98.511 147.975-98.518 237.808-.001 6.454 4.128 12.186 10.25 14.229 1.562.521 3.163.773 4.748.773 4.627 0 9.106-2.147 11.995-5.991 70.817-94.265 177.438-149.973 294.34-154.372v38.849c0 28.154 15.337 38.145 28.471 38.146h.001c9.566 0 19.267-4.849 28.829-14.412l115.898-115.9c11.265-11.262 17.468-26.284 17.468-42.298 0-16.015-6.203-31.037-17.467-42.3zm-21.213 63.385-115.899 115.901c-2.223 2.223-4.064 3.627-5.422 4.48-.357-1.563-.666-3.858-.666-7.001v-54.131c0-8.284-6.716-15-15-15-66.647 0-130.332 15.27-189.283 45.384-42.32 21.619-81.006 50.721-113.767 85.379 21.794-147.697 149.396-261.431 303.05-261.431 8.284 0 15-6.716 15-15v-54.132c0-3.143.309-5.438.665-7 1.358.853 3.2 2.257 5.423 4.48l115.899 115.9c5.598 5.597 8.68 13.085 8.68 21.086 0 8-3.082 15.488-8.68 21.085z"/></svg>