<svg xmlns="http://www.w3.org/2000/svg" xmlns:xlink="http://www.w3.org/1999/xlink" width="19.372" height="19.519" viewBox="0 0 19.372 19.519">
  <defs>
    <clipPath id="clip-path">
      <rect id="Rectangle_1516" data-name="Rectangle 1516" width="19.372" height="19.519" fill="none"/>
    </clipPath>
  </defs>
  <g id="Group_11397" data-name="Group 11397" opacity="0.9">
    <g id="Group_11396" data-name="Group 11396" clip-path="url(#clip-path)">
      <path id="Path_24488" data-name="Path 24488" d="M19.382,12.6a8.906,8.906,0,1,1-8.906-8.906A8.906,8.906,0,0,1,19.382,12.6" transform="translate(-1.208 -2.841)" fill="#fff"/>
      <path id="Path_24489" data-name="Path 24489" d="M40.1,4.012V21.752l6.435-2.581,2.746-7.546s-2.911-5.032-3.131-5.142-3.3-2.787-3.3-2.787Z" transform="translate(-30.83 -2.842)" fill="#e2e2e2"/>
      <path id="Path_24490" data-name="Path 24490" d="M3.848,3.905c.469,0,.882-.008,1.294,0a.993.993,0,0,1,.939,1.254,1.032,1.032,0,0,1-.922.691c-1.391.007-2.782.01-4.173,0A.979.979,0,0,1,.009,4.843q0-1.917,0-3.833A.993.993,0,0,1,1.013,0,1,1,0,0,1,2.048,1c.006.529,0,1.058,0,1.588,0,.063-.037.153.031.184s.118-.049.166-.094A9.7,9.7,0,0,1,4.672,1.034,10.313,10.313,0,0,1,7.889.087,10.456,10.456,0,0,1,12.552.54a10.184,10.184,0,0,1,3.267,1.812,9.75,9.75,0,0,1,2.57,3.208,9.193,9.193,0,0,1,.954,3.487A9.268,9.268,0,0,1,17.851,14.9a9.968,9.968,0,0,1-4.308,3.691,10.157,10.157,0,0,1-2.947.835,10.91,10.91,0,0,1-2.056.076,10.294,10.294,0,0,1-3.521-.837,10.163,10.163,0,0,1-3.578-2.606A9.145,9.145,0,0,1,.126,14.114.958.958,0,0,1,.484,12.8a1.014,1.014,0,0,1,1.39.335,13.86,13.86,0,0,0,.839,1.316,7.949,7.949,0,0,0,3.516,2.577,8.077,8.077,0,0,0,3.35.53,8.261,8.261,0,0,0,4.851-1.83,7.47,7.47,0,0,0,2.03-2.464,7.778,7.778,0,0,0,.843-3.028,7.378,7.378,0,0,0-.851-3.949,7.773,7.773,0,0,0-3.858-3.576,8.352,8.352,0,0,0-3.994-.7A8.192,8.192,0,0,0,4.8,3.217a6.712,6.712,0,0,0-.954.689" transform="translate(0 0)" fill="#fe3737"/>
      <path id="Path_24491" data-name="Path 24491" d="M35.3,24.019c0-.658-.008-1.315,0-1.973a.969.969,0,0,1,.919-.948,1.007,1.007,0,0,1,1.07.726,1.583,1.583,0,0,1,.031.382c0,1.051,0,2.1,0,3.152a.437.437,0,0,0,.152.354q.768.722,1.524,1.457a.956.956,0,0,1,.088,1.425,1.032,1.032,0,0,1-1.485,0c-.656-.627-1.308-1.257-1.965-1.882a1.019,1.019,0,0,1-.337-.785c.006-.635,0-1.27,0-1.9h0" transform="translate(-27.137 -16.216)" fill="#141414"/>
    </g>
  </g>
</svg>
