<svg xmlns="http://www.w3.org/2000/svg" width="18.421" height="18.421" viewBox="0 0 18.421 18.421">
  <path id="Union_5" data-name="Union 5" d="M-4.3-1528.579a2.3,2.3,0,0,1-2.3-2.3v-6.908a2.3,2.3,0,0,1,2.3-2.3H4.333a2.3,2.3,0,0,1,2.282,2l3.581-1.591a1.154,1.154,0,0,1,1.1.086,1.153,1.153,0,0,1,.525.966v8.591a1.153,1.153,0,0,1-.525.965,1.152,1.152,0,0,1-1.094.086l-3.582-1.591a2.3,2.3,0,0,1-2.282,2ZM.3-1543.546A3.454,3.454,0,0,1,3.757-1547a3.454,3.454,0,0,1,3.454,3.454,3.455,3.455,0,0,1-3.454,3.454A3.454,3.454,0,0,1,.3-1543.546Zm-6.908,0A3.454,3.454,0,0,1-3.152-1547,3.454,3.454,0,0,1,.3-1543.546a3.454,3.454,0,0,1-3.454,3.454A3.454,3.454,0,0,1-6.605-1543.546Z" transform="translate(6.605 1547)" fill="#ff7856"/>
</svg>
